<?xml version="1.0" encoding="UTF-8"?>
<!DOCTYPE svg PUBLIC "-//W3C//DTD SVG 1.1//EN" "http://www.w3.org/Graphics/SVG/1.1/DTD/svg11.dtd">
<svg width="1125pt" height="1125pt" viewBox="0 0 1125 1125" version="1.1" xmlns="http://www.w3.org/2000/svg">
<path fill="#000000" stroke="#000000" stroke-width="0.09375" d=" M 0.0 0.0 L 1125.0 0.0 L 1125.0 1125.0 L 0.0 1125.0 L 0.0 0.0 Z"/>
<path fill="#b8b8b8" stroke="#b8b8b8" stroke-width="0.09375" d=" M 561.3 111.3 C 560.8 109.7 561.4 108.1 562.2 106.8 C 575.9 188.8 589.8 270.9 603.5 352.9 C 603.8 358.3 604.9 363.8 604.1 369.2 C 590.3 366.4 576.4 363.4 562.6 360.5 C 562.5 360.3 562.2 359.8 562.1 359.6 C 561.9 281.4 562.1 203.2 562.0 125.0 C 561.9 120.4 562.5 115.8 561.3 111.3 Z"/>
<path fill="#d0d0d0" stroke="#d0d0d0" stroke-width="0.09375" d=" M 561.3 111.3 C 562.5 115.8 561.9 120.4 562.0 125.0 C 562.1 203.2 561.9 281.4 562.1 359.6 C 561.8 516.3 562.1 673.1 561.9 829.8 C 561.1 828.4 560.2 826.9 559.6 825.4 C 553.4 808.0 546.9 790.8 540.5 773.4 C 537.9 765.7 534.3 758.2 532.4 750.2 C 535.8 743.0 535.5 734.8 536.0 727.0 C 536.0 639.3 536.0 551.7 536.0 464.0 C 535.9 445.2 536.3 426.3 535.8 407.5 C 537.3 405.2 538.9 402.8 540.1 400.3 C 547.0 387.0 554.7 374.2 561.3 360.9 C 547.4 363.2 533.7 366.4 520.0 369.2 C 519.1 363.8 520.2 358.3 520.6 352.9 C 528.4 306.3 536.2 259.6 544.0 213.0 C 549.8 179.1 555.2 145.1 561.3 111.3 Z"/>
<path fill="#b8b8b8" stroke="#b8b8b8" stroke-width="0.09375" d=" M 17.1 360.3 C 170.3 433.6 323.4 507.1 476.5 580.5 C 480.5 581.9 481.4 586.5 481.6 590.3 L 481.3 590.3 C 463.5 594.4 445.8 598.9 428.1 603.2 C 427.0 610.2 423.9 616.6 421.1 623.0 C 408.7 649.4 396.2 675.8 383.8 702.2 C 399.7 692.6 415.8 683.1 431.6 673.4 C 431.5 675.1 431.3 676.9 431.1 678.6 C 432.4 681.0 433.6 683.6 435.9 685.1 C 464.5 705.9 492.9 726.9 521.5 747.7 C 524.0 749.6 527.1 750.4 530.0 751.3 C 530.8 750.9 531.6 750.6 532.4 750.2 C 534.3 758.2 537.9 765.7 540.5 773.4 C 546.9 790.8 553.4 808.0 559.6 825.4 C 560.2 826.9 561.1 828.4 561.9 829.8 C 562.6 828.5 563.2 827.3 563.8 826.0 C 564.1 826.6 564.6 827.9 564.9 828.5 C 564.0 829.2 563.1 829.8 562.2 830.5 C 502.0 789.2 442.0 747.6 381.9 706.2 C 381.3 707.6 380.6 709.0 380.0 710.4 C 353.7 766.0 327.5 821.6 301.2 877.3 C 297.7 885.0 293.6 892.5 290.6 900.4 C 289.7 902.9 288.2 905.1 286.7 907.3 C 286.4 904.4 287.8 901.7 288.7 899.0 C 322.2 805.3 355.5 711.7 388.9 618.0 C 391.2 612.0 393.4 605.4 391.5 598.9 C 403.6 600.2 415.7 601.7 427.9 602.7 C 427.2 595.2 421.7 589.2 415.0 586.1 C 290.9 515.6 166.7 444.9 42.5 374.5 C 41.1 373.7 39.6 373.2 38.1 372.7 C 30.9 369.0 24.0 364.6 17.1 360.3 Z"/>
<path fill="#898989" stroke="#898989" stroke-width="0.09375" d=" M 562.1 359.6 C 562.2 359.8 562.5 360.3 562.6 360.5 C 570.8 376.3 579.6 391.7 588.0 407.4 C 588.1 513.9 588.0 620.5 588.0 727.0 C 588.6 734.9 588.6 743.1 591.7 750.5 C 582.5 775.7 573.3 800.9 563.8 826.0 C 563.2 827.3 562.6 828.5 561.9 829.8 C 562.1 673.1 561.8 516.3 562.1 359.6 Z"/>
<path fill="#d0d0d0" stroke="#d0d0d0" stroke-width="0.09375" d=" M 647.6 580.5 C 800.7 507.1 953.7 433.6 1106.9 360.3 C 1104.2 362.2 1101.2 363.5 1098.5 365.3 C 1097.4 365.7 1096.4 366.1 1095.3 366.6 L 1095.5 367.8 C 1095.0 367.6 1094.1 367.3 1093.6 367.1 L 1093.6 368.6 C 1093.2 368.5 1092.2 368.4 1091.7 368.3 L 1091.6 369.8 L 1090.1 369.1 L 1090.6 370.8 C 1090.1 370.6 1089.0 370.2 1088.4 370.0 L 1088.7 371.4 C 1088.4 371.4 1087.6 371.4 1087.2 371.4 C 1079.7 374.9 1072.7 379.5 1065.3 383.5 C 945.5 451.6 825.6 519.7 705.7 587.8 C 700.8 590.7 697.4 595.8 696.1 601.3 C 696.1 601.8 696.1 602.7 696.1 603.1 C 678.1 599.1 660.3 594.3 642.4 590.1 C 642.6 586.4 643.6 581.9 647.6 580.5 Z"/>
<path fill="#b8b8b8" stroke="#b8b8b8" stroke-width="0.09375" d=" M 520.0 369.2 C 533.7 366.4 547.4 363.2 561.3 360.9 C 554.7 374.2 547.0 387.0 540.1 400.3 C 538.9 402.8 537.3 405.2 535.8 407.5 C 531.0 397.4 526.8 387.0 522.1 376.8 C 521.0 374.4 520.5 371.8 520.0 369.2 Z"/>
<path fill="#5a5a5a" stroke="#5a5a5a" stroke-width="0.09375" d=" M 562.6 360.5 C 576.4 363.4 590.3 366.4 604.1 369.2 C 603.9 371.1 603.7 373.1 602.9 374.9 C 598.1 386.0 593.2 397.0 588.3 408.1 L 588.0 407.4 C 579.6 391.7 570.8 376.3 562.6 360.5 Z"/>
<path fill="#434343" stroke="#434343" stroke-width="0.09375" d=" M 1065.3 383.5 C 1072.7 379.5 1079.7 374.9 1087.2 371.4 C 1087.0 371.9 1086.5 372.8 1086.3 373.3 C 978.4 438.7 870.4 504.0 762.4 569.3 C 753.7 574.8 743.9 579.2 738.0 588.0 C 735.8 590.6 734.6 593.8 733.1 596.8 C 732.8 597.2 732.1 598.2 731.8 598.7 C 725.2 599.5 718.6 600.1 712.0 600.8 C 706.7 601.3 701.4 602.7 696.1 601.3 C 697.4 595.8 700.8 590.7 705.7 587.8 C 825.6 519.7 945.5 451.6 1065.3 383.5 Z"/>
<path fill="#898989" stroke="#898989" stroke-width="0.09375" d=" M 38.1 372.7 C 39.6 373.2 41.1 373.7 42.5 374.5 C 166.7 444.9 290.9 515.6 415.0 586.1 C 421.7 589.2 427.2 595.2 427.9 602.7 C 415.7 601.7 403.6 600.2 391.5 598.9 C 389.4 590.2 383.3 583.0 376.1 577.9 C 264.0 510.0 151.8 442.1 39.7 374.2 C 39.3 373.9 38.5 373.1 38.1 372.7 Z"/>
<path fill="#a1a1a1" stroke="#a1a1a1" stroke-width="0.09375" d=" M 642.4 590.1 C 660.3 594.3 678.1 599.1 696.1 603.1 C 697.2 609.8 700.2 616.0 702.8 622.2 C 715.2 648.9 728.0 675.3 740.3 702.0 C 725.1 693.6 710.5 684.2 695.5 675.4 C 694.5 675.0 693.4 674.7 692.4 674.4 L 692.3 674.4 C 691.9 673.0 691.6 671.6 690.8 670.4 C 676.4 647.1 662.0 623.7 647.6 600.4 C 645.6 597.1 643.3 593.9 642.4 590.1 Z"/>
<path fill="#434343" stroke="#434343" stroke-width="0.09375" d=" M 428.1 603.2 C 445.8 598.9 463.5 594.4 481.3 590.3 C 481.3 594.0 478.7 596.9 477.0 600.0 C 461.9 624.5 446.8 649.0 431.6 673.4 C 415.8 683.1 399.7 692.6 383.8 702.2 C 396.2 675.8 408.7 649.4 421.1 623.0 C 423.9 616.6 427.0 610.2 428.1 603.2 Z"/>
<path fill="#5a5a5a" stroke="#5a5a5a" stroke-width="0.09375" d=" M 731.8 598.7 C 732.1 598.2 732.8 597.2 733.1 596.8 C 731.5 602.5 731.7 608.5 733.9 614.0 C 767.5 708.2 801.0 802.3 834.6 896.5 C 835.6 899.9 837.5 903.1 837.8 906.7 C 835.8 907.4 835.1 904.7 834.7 903.2 C 833.8 899.2 831.7 895.7 830.0 892.0 C 804.7 838.3 779.4 784.6 754.0 731.0 C 750.4 723.7 747.5 716.1 743.4 709.1 C 742.7 708.3 742.0 707.5 741.4 706.7 C 741.5 706.4 741.7 705.7 741.9 705.4 C 741.3 704.3 740.8 703.1 740.3 702.0 C 728.0 675.3 715.2 648.9 702.8 622.2 C 700.2 616.0 697.2 609.8 696.1 603.1 C 696.1 602.7 696.1 601.8 696.1 601.3 C 701.4 602.7 706.7 601.3 712.0 600.8 C 718.6 600.1 725.2 599.5 731.8 598.7 Z"/>
<path fill="#d0d0d0" stroke="#d0d0d0" stroke-width="0.09375" d=" M 692.4 674.4 C 693.4 674.7 694.5 675.0 695.5 675.4 C 710.5 684.2 725.1 693.6 740.3 702.0 C 740.8 703.1 741.3 704.3 741.9 705.4 C 741.7 705.7 741.5 706.4 741.4 706.7 C 682.5 747.2 623.7 787.9 564.9 828.5 C 564.6 827.9 564.1 826.6 563.8 826.0 C 573.3 800.9 582.5 775.7 591.7 750.5 C 597.0 752.1 602.0 748.2 606.1 745.2 C 633.2 725.3 660.4 705.4 687.6 685.5 C 690.2 683.9 691.5 681.1 693.0 678.6 C 692.8 677.2 692.6 675.8 692.4 674.4 Z"/>
<path fill="#5a5a5a" stroke="#5a5a5a" stroke-width="0.09375" d=" M 380.0 710.4 C 380.6 709.0 381.3 707.6 381.9 706.2 C 442.0 747.6 502.0 789.2 562.2 830.5 C 572.5 839.9 582.8 849.4 593.0 859.0 C 595.2 861.0 597.6 862.7 599.9 864.6 C 595.4 884.8 589.8 904.9 585.0 925.0 C 577.8 953.2 570.8 981.5 563.6 1009.7 C 563.0 1011.4 563.4 1014.0 561.3 1014.7 L 561.5 1013.7 C 562.5 1008.9 561.9 1003.9 562.0 999.0 C 562.1 942.9 561.8 886.8 562.1 830.8 C 549.6 842.1 537.2 853.6 524.9 865.1 C 524.8 865.5 524.7 866.1 524.6 866.4 L 524.4 867.0 C 523.3 863.7 523.6 859.6 520.8 857.1 C 492.2 829.5 463.2 802.1 434.5 774.4 C 422.1 762.9 410.1 750.8 397.5 739.3 C 396.2 738.1 394.5 737.3 392.8 736.7 C 388.2 728.1 384.7 718.9 380.0 710.4 Z"/>
<path fill="#434343" stroke="#434343" stroke-width="0.09375" d=" M 564.9 828.5 C 623.7 787.9 682.5 747.2 741.4 706.7 C 742.0 707.5 742.7 708.3 743.4 709.1 C 739.5 718.4 735.1 727.5 730.5 736.5 C 723.8 741.1 718.6 747.3 712.5 752.5 C 691.3 773.0 669.8 793.2 648.7 813.7 C 639.2 822.2 630.5 831.5 621.0 840.1 C 615.0 845.7 609.2 851.5 603.3 857.2 C 601.0 859.1 601.0 862.1 599.9 864.6 C 597.6 862.7 595.2 861.0 593.0 859.0 C 582.8 849.4 572.5 839.9 562.2 830.5 C 563.1 829.8 564.0 829.2 564.9 828.5 Z"/>
<path fill="#a1a1a1" stroke="#a1a1a1" stroke-width="0.09375" d=" M 743.4 709.1 C 747.5 716.1 750.4 723.7 754.0 731.0 C 779.4 784.6 804.7 838.3 830.0 892.0 C 831.7 895.7 833.8 899.2 834.7 903.2 C 800.5 848.5 766.8 793.3 732.7 738.4 C 732.2 737.9 731.0 736.9 730.5 736.5 C 735.1 727.5 739.5 718.4 743.4 709.1 Z"/>
<path fill="#434343" stroke="#434343" stroke-width="0.09375" d=" M 301.2 877.3 C 327.5 821.6 353.7 766.0 380.0 710.4 C 384.7 718.9 388.2 728.1 392.8 736.7 C 359.1 790.7 325.8 845.1 292.2 899.2 C 291.8 899.5 291.0 900.1 290.6 900.4 C 293.6 892.5 297.7 885.0 301.2 877.3 Z"/>
<path fill="#a1a1a1" stroke="#a1a1a1" stroke-width="0.09375" d=" M 524.9 865.1 C 537.2 853.6 549.6 842.1 562.1 830.8 C 561.8 886.8 562.1 942.9 562.0 999.0 C 561.9 1003.9 562.5 1008.9 561.5 1013.7 C 549.4 964.6 536.7 915.5 524.6 866.4 C 524.7 866.1 524.8 865.5 524.9 865.1 Z"/>
</svg>